<svg width="667" height="560" viewBox="0 0 667 560" fill="none" xmlns="http://www.w3.org/2000/svg">
<g clip-path="url(#clip0_45_3397)">
<path d="M-71.6951 501.786C-71.6951 501.786 -72.1313 496.765 -72.3494 504.842C-72.3494 517.576 -72.3494 529.072 -72.3494 540.424C-72.3494 546.1 -71.7677 551.775 -71.1134 557.233C-70.9899 559.441 -70.4727 561.61 -69.5865 563.636C-68.1625 565.626 -66.4748 567.413 -64.5696 568.948L-63.5517 570.33C-47.2112 581.777 -29.5637 591.231 -10.9838 598.49C23.5023 614.112 60.3728 623.804 98.0782 627.16C97.133 627.16 96.624 627.16 100.332 627.669C109.218 628.054 118.12 627.443 126.871 625.85C136.75 624.251 145.948 619.8 153.336 613.043L156.39 609.842C157.335 608.75 157.99 607.441 158.862 606.276C159.467 605.367 160.122 604.492 160.825 603.657C162.105 600.787 163.222 597.848 164.17 594.852C165.26 590.996 166.351 586.63 167.296 582.191C169.187 573.387 170.423 564.655 171.077 560.362C175.134 533.357 177.707 506.151 178.784 478.865C180.093 451.941 180.529 425.237 180.384 398.168C180.238 371.099 179.438 343.594 177.766 315.361C176.894 301.245 175.803 286.837 174.203 272.357C173.404 265.08 172.458 257.804 171.15 250.527C170.423 246.962 169.696 243.251 168.75 239.976C168.253 237.718 167.394 235.556 166.206 233.573L82.3005 211.234C64.2689 206.504 43.6926 201.484 23.1162 197.336C3.82 192.995 -15.8083 190.293 -35.5592 189.259C-32.7963 188.822 -45.2293 186.494 -53.009 188.313C-55.3594 188.844 -57.4758 190.12 -59.0438 191.951C-59.0438 191.951 -59.6982 191.369 -59.0438 189.55C-58.2824 188.158 -57.2446 186.937 -55.9943 185.961C-54.744 184.985 -53.3075 184.275 -51.773 183.874C-53.5457 184.144 -55.2335 184.815 -56.7077 185.837C-58.1819 186.858 -59.4037 188.203 -60.2798 189.768C-60.7161 190.642 -60.2799 189.041 -58.753 187.294C-55.4812 183.656 -48.283 182.637 -49.3736 182.565C-52.4274 182.565 -47.8468 180.818 -45.1566 180.163C-43.7751 179.727 -42.9754 179.436 -43.8479 179.29C-47.0946 179.14 -50.3425 179.559 -53.4453 180.527C-56.5609 181.291 -59.4046 182.903 -61.6613 185.184C-62.6417 186.253 -63.429 187.484 -63.988 188.823C-63.1997 187.142 -62.0877 185.634 -60.7161 184.384C-58.5982 182.589 -56.1181 181.274 -53.4453 180.527C-51.1186 179.872 -51.6276 180.018 -53.4453 180.527C-57.5896 181.837 -57.0807 181.619 -54.1724 180.527C-50.086 179.159 -45.8268 178.375 -41.5212 178.199C-31.9964 177.617 -22.908 178.199 -30.1061 177.689C-4.37106 179.789 21.1422 184.049 46.1647 190.423C64.4144 194.644 87.0993 200.319 116.546 208.324C131.088 212.18 147.738 217.055 165.915 221.567L170.204 222.586C172.473 223.361 174.418 224.872 175.73 226.879C177.427 229.563 178.725 232.48 179.584 235.538C181.113 240.772 182.327 246.093 183.219 251.473C185.037 262.243 186.346 273.303 187.436 285.382C188.818 301.536 191.581 342.721 191.653 397.222C191.653 424.509 191.217 455.07 189.399 487.451C188.062 521.448 183.928 555.277 177.039 588.594C175.948 592.888 174.785 597.181 173.331 601.474L170.495 608.168C169.367 610.346 168.079 612.438 166.642 614.426C160.921 622.259 153.145 628.354 144.175 632.035C127.208 638.215 109.036 640.358 91.0982 638.293C58.6295 634.766 26.8139 626.708 -3.42225 614.353C-16.9644 609.044 -30.2158 603.021 -43.1208 596.307C-55.0661 590.609 -66.1532 583.261 -76.0575 574.478C-77.3857 573.163 -78.557 571.698 -79.5475 570.112C-80.0894 569.197 -80.575 568.249 -81.0017 567.274L-81.7287 564.655C-82.3739 561.681 -82.8112 558.666 -83.0375 555.632C-83.5464 550.102 -83.7645 545.008 -83.9099 540.133C-83.9099 530.455 -83.9099 522.087 -83.9099 515.102C-83.9099 511.682 -83.9099 508.334 -83.9099 504.914C-83.0374 443.937 -78.7477 370.226 -74.9669 318.854C-73.1492 295.278 -71.0406 271.338 -68.7867 247.544C-69.3683 258.604 -69.8773 268.864 -70.3862 277.887C-68.714 253.584 -66.6782 229.353 -65.5876 219.675C-64.2062 206.723 -63.1882 198.937 -62.3884 194.644C-61.8795 191.951 -61.8795 192.752 -61.8068 192.606C-61.6606 193.62 -61.6606 194.649 -61.8068 195.662C-61.8068 197.482 -61.8067 199.665 -62.243 201.993C-62.243 206.723 -62.8246 212.18 -63.1155 217.274C-63.9879 231.827 -61.6613 212.326 -63.1155 234.737C-61.734 218.656 -61.225 210.507 -59.1165 194.498C-59.1165 192.534 -64.3515 244.051 -62.6066 232.918C-62.0249 225.132 -61.2251 216.91 -60.3526 208.615C-59.8437 204.54 -59.4073 200.392 -58.8984 196.245L-58.3895 193.261V195.08C-59.1166 200.465 -59.7709 207.159 -60.4253 213.635C-61.5886 226.588 -62.5339 238.521 -62.1703 237.357C-61.8068 232.918 -60.8616 221.64 -59.9891 211.016C-59.5528 205.704 -59.0438 200.61 -58.4621 196.463C-58.4621 195.444 -58.4622 194.571 -58.0259 193.698C-57.5897 192.825 -58.0259 193.261 -58.0259 193.043C-58.0632 193.333 -58.0632 193.626 -58.0259 193.916C-58.0259 194.935 -58.3894 196.026 -58.4621 197.263C-59.1165 202.211 -59.6983 208.251 -60.1345 212.253C-59.4801 206.068 -58.8257 200.247 -58.0259 194.935V193.043C-57.8848 192.993 -57.7308 192.993 -57.5897 193.043C-57.5897 193.043 -57.0081 193.043 -56.7172 193.479C-56.4264 193.916 -56.7172 192.825 -56.7172 192.606C-56.7172 192.606 -56.7172 192.606 -56.7172 193.116V192.679L-56.1355 193.043L-55.5539 193.625V194.353L-55.9174 197.336C-56.3537 201.411 -56.7172 204.904 -57.008 207.814C-61.5886 256.421 -64.2788 305.538 -67.3325 354.509C-70.3863 403.48 -70.8226 452.96 -71.6951 501.786Z" fill="#DFC0B8"/>
<path d="M115.165 38.4897C115.165 38.4897 119.891 37.5438 112.184 38.4897C101.125 39.2537 90.194 41.305 79.6104 44.602C78.0922 45.0332 76.6808 45.7767 75.4661 46.785C74.6762 48.8011 74.0204 50.8673 73.5029 52.97C72.1215 58.1363 71.1036 63.8848 70.013 69.8515L69.3586 71.5251C66.523 90.153 64.778 109.945 63.3239 130.174C60.1313 167.05 59.4753 204.102 61.3607 241.068C61.3607 240.122 60.9245 239.685 61.3607 243.324C61.9799 252.091 63.121 260.815 64.778 269.446C65.6851 274.231 66.9985 278.929 68.7042 283.49C69.5395 285.581 70.5872 287.58 71.8307 289.457C72.3396 290.476 73.0668 290.694 73.5757 291.421C74.0847 292.149 75.248 292.295 76.0478 292.877C78.6935 294.073 81.4438 295.023 84.2638 295.715C85.3503 296.045 86.4182 296.433 87.4629 296.879C101.88 299.628 116.447 301.523 131.088 302.555C183.417 306.876 235.955 308.091 288.428 306.193C314.603 305.392 341.068 304.083 368.407 301.099C375.096 300.299 381.93 299.426 388.619 298.261C395.073 297.157 401.405 295.427 407.524 293.095C408.667 292.596 409.783 292.038 410.868 291.421C411.675 290.628 412.36 289.721 412.904 288.729C414.465 285.968 415.709 283.039 416.612 279.997C418.622 273.151 420.152 266.173 421.193 259.114C424.954 231.188 426.704 203.028 426.428 174.852C426.959 135.89 424.284 96.95 418.43 58.4274C419.52 60.9742 418.939 48.8224 417.121 40.8182C416.653 38.4372 415.74 36.166 414.431 34.1238C414.431 34.1238 415.085 33.3962 416.685 34.1238C418.859 36.1164 420.508 38.6161 421.483 41.4003C420.739 38.132 419.103 35.1345 416.757 32.7413C415.958 32.0864 417.485 32.7413 418.721 34.7059C420.297 37.5671 421.728 40.5057 423.01 43.5105C422.574 37.6165 430.281 60.4648 424.828 39.5812C424.062 36.997 422.91 34.5437 421.411 32.3047C420.617 31.1086 419.605 30.072 418.43 29.2486C419.84 30.3161 421.026 31.6513 421.92 33.1779C424.61 37.8349 426.064 43.9471 424.828 39.5084C422.211 32.2319 426.5 41.4731 428.391 50.1322C430.281 58.7912 431.808 67.523 430.936 60.6831C434.683 85.2843 436.869 110.098 437.479 134.976C438.061 153.168 438.497 175.87 437.479 205.559C436.825 220.112 435.952 236.993 433.408 255.621C432.17 265.743 430.004 275.73 426.937 285.455C425.974 288.299 424.758 291.051 423.301 293.677C422.386 295.197 421.34 296.634 420.175 297.97C418.817 299.372 417.246 300.551 415.521 301.463C409.962 304.229 404.037 306.189 397.926 307.284C362.083 313.147 325.836 316.188 289.518 316.38C263.125 317.035 233.606 317.18 202.269 316.38C169.504 315.823 136.79 313.564 104.258 309.613C95.6902 308.519 87.2105 306.817 78.8834 304.519C76.6628 303.887 74.4783 303.134 72.3396 302.263C71.3217 302.263 70.013 301.026 68.8496 300.444C67.6204 299.791 66.5135 298.929 65.5778 297.898C62.028 294.29 59.3646 289.905 57.798 285.091C52.8429 268.697 50.1041 251.713 49.6547 234.592C48.1997 203.234 48.5881 171.818 50.8181 140.507C52.327 114.174 55.2395 87.9415 59.543 61.9201C60.4595 56.341 61.7223 50.8245 63.3239 45.4024C63.7267 43.9594 64.2371 42.5487 64.8507 41.182C65.6877 39.1674 67.0423 37.4101 68.777 36.0885C71.2134 34.3374 73.9132 32.9864 76.7748 32.0864C84.8064 29.6903 93.0282 27.9862 101.35 26.9928L111.238 25.9014C171.13 21.727 231.207 20.9011 291.191 23.4274C314.021 24.155 337.215 25.1737 360.336 26.4107H331.253C354.81 27.0656 378.295 28.0843 387.311 28.8847C399.816 29.6852 407.451 30.4856 411.595 31.1404C414.285 31.577 413.558 31.577 413.631 31.6498C413.631 31.6498 412.468 31.6498 410.723 31.6498H404.542H390.001C376.114 31.6498 394.8 32.9596 373.133 32.3047C388.765 33.1051 396.617 33.2506 412.177 34.8515C413.995 34.8515 364.117 31.5043 374.95 32.814C382.221 32.814 390.437 33.5417 398.435 34.0511C402.434 34.0511 406.506 34.7059 410.432 35.1425L413.34 35.5064H411.595C406.36 34.9242 399.889 34.5604 393.564 34.1966C381.058 33.4689 369.497 33.0323 370.661 33.3234L396.108 34.4877C401.271 34.4877 406.287 35.0698 410.068 35.5064H412.686H413.34H412.468H409.196C404.47 34.997 398.58 34.6332 394.654 34.4149C400.616 34.8515 406.287 35.2153 411.377 35.8702H413.195V36.234C413.223 36.4171 413.196 36.6044 413.118 36.7725C413.041 36.9407 412.916 37.0823 412.759 37.18C412.759 37.18 413.267 37.18 413.486 37.18V37.7621L412.977 38.3442H412.177H409.414L399.235 37.6165C352.193 34.9242 304.714 34.0511 257.236 33.76C209.758 33.4689 161.843 34.3421 115.165 38.4897Z" fill="#DFC0B8"/>
<path d="M267.052 443.719C267.052 443.719 272.068 443.719 263.998 442.991C238.477 441.9 217.901 442.337 192.526 442.991H190.635C180.893 443.307 171.18 444.231 161.552 445.757C159.093 446.078 156.662 446.589 154.281 447.285C152.767 447.702 151.303 448.287 149.919 449.031L149.192 450.85C148.705 451.778 148.315 452.753 148.029 453.761C147.52 456.016 146.72 458.127 146.356 460.601C143.954 479.273 143.954 498.176 146.356 516.848C148.024 535.652 151.63 554.233 157.117 572.295C156.681 571.495 156.39 571.058 157.553 574.551C158.857 578.347 160.487 582.024 162.425 585.538L164.024 588.012C164.824 589.177 164.024 588.449 165.115 589.104C166.996 590.073 168.969 590.853 171.004 591.432C181.425 594.325 192.012 596.585 202.705 598.2L212.593 599.873C213.824 600.081 215.038 600.373 216.229 600.746C226.408 602.347 253.601 605.331 262.107 606.204C318.02 612.898 371.169 616.827 425.264 619.811C479.359 622.794 535.49 624.977 597.146 623.013C611.784 622.721 626.374 621.236 640.771 618.574C648.042 617.337 656.33 613.771 654.076 612.68V607.732C653.713 606.058 653.422 604.385 653.131 602.784C652.591 599.645 651.887 596.536 651.023 593.47C639.55 555.249 620.373 519.786 594.674 489.27C597.001 490.871 589.948 480.757 583.55 474.717C580.35 471.879 577.515 469.696 577.515 468.896C577.515 468.095 578.169 468.896 579.841 468.896C582.753 469.831 585.483 471.258 587.912 473.116L584.713 470.642L582.168 469.26L579.696 467.804C579.042 467.368 580.132 467.804 581.95 468.896L585.004 470.424L587.839 472.461C589.512 473.698 590.748 474.572 590.457 474.135C586.749 469.26 606.525 484.686 589.73 469.769C587.764 468.159 585.645 466.745 583.404 465.549L580.932 464.239L584.131 466.058C586.18 467.159 588.106 468.477 589.875 469.987C591.547 471.297 591.184 471.006 589.875 469.987C588.203 468.678 587.403 467.804 589.875 469.405C593.237 471.703 596.377 474.309 599.254 477.191C606.089 483.74 611.978 490.944 607.47 485.195C614.516 493.51 620.932 502.339 626.665 511.609C634.866 524.445 642.155 537.843 648.478 551.703C653.073 561.596 657.079 571.752 660.475 582.118C661.493 585.029 662.365 588.085 663.165 591.36C664.16 594.677 664.937 598.055 665.491 601.474C666.229 605.264 666.643 609.11 666.728 612.971C666.73 614.676 666.46 616.371 665.928 617.992C665.162 619.644 664.046 621.109 662.656 622.285C661.655 623.266 660.501 624.077 659.239 624.686C658.232 625.313 657.159 625.825 656.039 626.214C647.889 629.131 639.419 631.061 630.81 631.963C622.085 633.054 612.924 633.782 603.253 634.291C583.913 635.383 562.464 635.674 538.689 635.455C437.351 633.448 336.18 626.283 235.569 613.99C218.337 611.734 201.105 609.187 183.801 605.622C179.511 604.676 175.221 603.657 170.859 602.42C168.59 601.788 166.358 601.035 164.17 600.164C162.909 599.661 161.693 599.053 160.534 598.345C159.016 597.472 157.682 596.31 156.608 594.925C151.493 587.212 147.754 578.668 145.557 569.676C140.977 553.34 137.815 536.639 136.104 519.759C134.239 503.846 133.777 487.8 134.723 471.806C135.106 463.9 136.499 456.075 138.867 448.522C139.813 446.484 140.758 444.52 141.63 442.482C142.606 441.165 143.784 440.01 145.12 439.062C146.173 438.412 147.266 437.829 148.392 437.316C152.038 435.957 155.815 434.981 159.662 434.405C172.519 432.497 185.491 431.476 198.488 431.349C222.263 430.767 242.113 431.349 255.855 431.349H266.034C327.181 433.314 401.125 439.062 452.53 444.665C476.087 447.285 500.008 450.195 523.784 453.761C512.659 452.524 502.407 451.505 493.464 450.777C517.749 453.397 541.961 456.744 551.194 458.636C559.604 459.917 567.914 461.789 576.061 464.239L577.515 464.748H578.096C577.063 464.577 576.042 464.334 575.043 464.021L568.717 462.784C563.991 461.91 558.465 461.183 553.521 460.528C538.98 458.709 558.32 462.274 535.999 459.364C549.425 460.911 562.735 463.342 575.843 466.64C576.715 466.64 564.718 463.657 553.521 461.983C542.324 460.31 532.29 458.709 537.816 459.873C545.523 460.892 553.739 462.129 561.883 463.802C565.954 464.603 570.099 465.476 574.025 466.567L576.933 467.513L575.188 466.931C570.026 465.403 563.337 464.166 557.011 463.002C549.22 461.505 541.357 460.412 533.454 459.727C537.744 460.382 549.086 461.838 559.556 463.657C564.308 464.397 569.016 465.393 573.661 466.64L576.206 467.441H576.86H576.061L572.789 466.495C568.063 465.258 562.101 464.093 558.247 463.438C563.97 464.362 569.629 465.65 575.188 467.295L576.86 467.877C576.892 468.021 576.892 468.17 576.86 468.314C576.845 468.506 576.776 468.691 576.66 468.845C576.544 469 576.387 469.118 576.206 469.187C576.206 469.187 576.86 469.187 577.079 469.187L574.752 472.316L574.098 472.825H573.516L570.826 472.098C567.118 471.152 563.555 470.497 560.719 469.915C536.871 465.549 512.368 462.638 488.011 460.018C463.654 457.399 439.079 455.07 414.576 452.742C365.135 448.74 315.984 445.465 267.052 443.719Z" fill="#DFC0B8"/>
</g>
<defs>
<clipPath id="clip0_45_3397">
<rect width="667" height="560" fill="white" transform="matrix(-1 0 0 1 667 0)"/>
</clipPath>
</defs>
</svg>
