<svg width="445" height="621" viewBox="0 0 445 621" fill="none" xmlns="http://www.w3.org/2000/svg">
<g clip-path="url(#clip0_45_3393)">
<path d="M35.3049 447.374C35.3049 447.374 34.8687 442.354 34.6506 450.431C34.6506 463.164 34.6506 474.661 34.6506 486.013C34.6506 491.688 35.2323 497.364 35.8866 502.821C36.0101 505.03 36.5273 507.199 37.4135 509.225C38.8375 511.215 40.5252 513.002 42.4304 514.537L43.4483 515.919C59.7888 527.366 77.4363 536.819 96.0162 544.079C130.502 559.701 167.373 569.393 205.078 572.749C204.133 572.749 203.624 572.749 207.332 573.258C216.218 573.642 225.12 573.032 233.871 571.439C243.75 569.84 252.948 565.389 260.336 558.632L263.39 555.431C264.335 554.339 264.99 553.029 265.862 551.865C266.467 550.956 267.122 550.081 267.825 549.246C269.105 546.376 270.222 543.437 271.17 540.441C272.26 536.584 273.351 532.219 274.296 527.78C276.187 518.975 277.423 510.244 278.077 505.95C282.134 478.946 284.707 451.74 285.784 424.453C287.093 397.53 287.529 370.825 287.384 343.757C287.238 316.688 286.438 289.183 284.766 260.95C283.894 246.834 282.803 232.426 281.203 217.946C280.404 210.669 279.458 203.393 278.15 196.116C277.423 192.551 276.696 188.84 275.75 185.565C275.253 183.307 274.394 181.145 273.206 179.162L189.3 156.823C171.269 152.093 150.693 147.073 130.116 142.925C110.82 138.584 91.1917 135.882 71.4408 134.848C74.2037 134.411 61.7707 132.083 53.991 133.902C51.6406 134.433 49.5242 135.709 47.9562 137.54C47.9562 137.54 47.3018 136.958 47.9562 135.139C48.7176 133.747 49.7554 132.525 51.0057 131.549C52.256 130.573 53.6925 129.864 55.227 129.463C53.4543 129.733 51.7665 130.404 50.2923 131.425C48.8181 132.447 47.5963 133.792 46.7202 135.357C46.2839 136.23 46.7201 134.63 48.247 132.883C51.5188 129.245 58.717 128.226 57.6264 128.154C54.5726 128.154 59.1532 126.407 61.8434 125.752C63.2249 125.316 64.0246 125.025 63.1521 124.879C59.9054 124.729 56.6575 125.148 53.5547 126.116C50.4391 126.88 47.5954 128.492 45.3387 130.773C44.3583 131.842 43.571 133.073 43.012 134.411C43.8003 132.731 44.9123 131.223 46.2839 129.973C48.4018 128.178 50.8819 126.863 53.5547 126.116C55.8814 125.461 55.3724 125.607 53.5547 126.116C49.4104 127.426 49.9193 127.208 52.8276 126.116C56.914 124.747 61.1732 123.963 65.4788 123.788C75.0036 123.206 84.092 123.788 76.8939 123.278C102.629 125.378 128.142 129.638 153.165 136.012C171.414 140.233 194.099 145.908 223.546 153.912C238.088 157.769 254.738 162.644 272.915 167.156L277.204 168.174C279.473 168.95 281.418 170.461 282.73 172.468C284.427 175.152 285.725 178.069 286.584 181.127C288.113 186.361 289.327 191.682 290.219 197.062C292.037 207.831 293.346 218.892 294.436 230.971C295.818 247.125 298.581 288.31 298.653 342.811C298.653 370.098 298.217 400.659 296.399 433.04C295.062 467.037 290.928 500.866 284.039 534.183C282.948 538.476 281.785 542.77 280.331 547.063L277.495 553.757C276.367 555.935 275.079 558.027 273.642 560.015C267.921 567.848 260.145 573.943 251.175 577.624C234.208 583.804 216.036 585.946 198.098 583.882C165.63 580.355 133.814 572.297 103.578 559.942C90.0356 554.633 76.7842 548.609 63.8792 541.896C51.9339 536.198 40.8468 528.85 30.9425 520.067C29.6143 518.752 28.443 517.287 27.4525 515.701C26.9106 514.785 26.425 513.838 25.9983 512.863L25.2713 510.244C24.6261 507.27 24.1888 504.255 23.9625 501.221C23.4536 495.69 23.2355 490.597 23.0901 485.722C23.0901 476.044 23.0901 467.676 23.0901 460.69C23.0901 457.27 23.0901 453.923 23.0901 450.503C23.9626 389.526 28.2523 315.815 32.0331 264.443C33.8508 240.867 35.9594 216.927 38.2133 193.133C37.6317 204.193 37.1227 214.453 36.6138 223.476C38.286 199.172 40.3218 174.942 41.4124 165.264C42.7938 152.312 43.8118 144.526 44.6116 140.233C45.1205 137.54 45.1205 138.341 45.1932 138.195C45.3394 139.209 45.3394 140.238 45.1932 141.251C45.1932 143.07 45.1933 145.253 44.757 147.582C44.757 152.312 44.1754 157.769 43.8845 162.863C43.0121 177.416 45.3387 157.915 43.8845 180.326C45.266 164.245 45.775 156.095 47.8835 140.087C47.8835 138.122 42.6485 189.64 44.3934 178.507C44.9751 170.721 45.7749 162.499 46.6474 154.204C47.1563 150.129 47.5927 145.981 48.1016 141.833L48.6105 138.85V140.669C47.8834 146.054 47.2291 152.748 46.5747 159.224C45.4114 172.176 44.4661 184.11 44.8297 182.946C45.1932 178.507 46.1384 167.228 47.0109 156.605C47.4472 151.293 47.9562 146.199 48.5379 142.052C48.5379 141.033 48.5378 140.16 48.9741 139.287C49.4103 138.413 48.9741 138.85 48.9741 138.632C48.9368 138.922 48.9368 139.215 48.9741 139.505C48.9741 140.524 48.6106 141.615 48.5379 142.852C47.8835 147.8 47.3017 153.84 46.8655 157.842C47.5199 151.657 48.1743 145.835 48.9741 140.524V138.632C49.1152 138.582 49.2692 138.582 49.4103 138.632C49.4103 138.632 49.9919 138.632 50.2828 139.068C50.5736 139.505 50.2828 138.413 50.2828 138.195C50.2828 138.195 50.2828 138.195 50.2828 138.705V138.268L50.8645 138.632L51.4461 139.214V139.942L51.0826 142.925C50.6463 147 50.2828 150.492 49.992 153.403C45.4114 202.01 42.7212 251.127 39.6675 300.098C36.6137 349.069 36.1774 398.549 35.3049 447.374Z" fill="#DFC0B8"/>
<path d="M222.165 -15.9211C222.165 -15.9211 226.891 -16.8671 219.184 -15.9211C208.125 -15.1571 197.194 -13.1059 186.61 -9.80887C185.092 -9.37768 183.681 -8.63419 182.466 -7.62592C181.676 -5.60981 181.02 -3.54363 180.503 -1.4409C179.121 3.72543 178.104 9.47388 177.013 15.4406L176.359 17.1142C173.523 35.7421 171.778 55.5343 170.324 75.763C167.131 112.639 166.475 149.691 168.361 186.657C168.361 185.711 167.924 185.275 168.361 188.913C168.98 197.681 170.121 206.404 171.778 215.036C172.685 219.82 173.999 224.518 175.704 229.079C176.54 231.17 177.587 233.169 178.831 235.046C179.34 236.065 180.067 236.283 180.576 237.011C181.085 237.738 182.248 237.884 183.048 238.466C185.694 239.662 188.444 240.612 191.264 241.304C192.35 241.634 193.418 242.023 194.463 242.468C208.88 245.217 223.447 247.112 238.088 248.144C290.417 252.465 342.955 253.68 395.428 251.782C421.603 250.981 448.068 249.672 475.407 246.688C482.096 245.888 488.93 245.015 495.619 243.851C502.073 242.746 508.405 241.016 514.524 238.684C515.667 238.185 516.783 237.627 517.868 237.011C518.675 236.218 519.36 235.31 519.904 234.318C521.465 231.557 522.709 228.628 523.612 225.586C525.622 218.74 527.152 211.762 528.193 204.703C531.954 176.777 533.704 148.617 533.428 120.441C533.959 81.4788 531.284 42.5391 525.43 4.01649C526.52 6.56327 525.939 -5.5885 524.121 -13.5927C523.653 -15.9737 522.74 -18.2449 521.431 -20.2871C521.431 -20.2871 522.085 -21.0147 523.685 -20.2871C525.859 -18.2944 527.508 -15.7948 528.483 -13.0106C527.739 -16.2789 526.103 -19.2764 523.757 -21.6696C522.958 -22.3245 524.485 -21.6696 525.721 -19.7049C527.297 -16.8437 528.728 -13.9052 530.01 -10.9004C529.574 -16.7943 537.281 6.05391 531.828 -14.8297C531.062 -17.4139 529.91 -19.8672 528.411 -22.1062C527.617 -23.3023 526.605 -24.3389 525.43 -25.1623C526.84 -24.0948 528.026 -22.7596 528.92 -21.233C531.61 -16.576 533.064 -10.4638 531.828 -14.9024C529.211 -22.179 533.5 -12.9378 535.391 -4.27873C537.281 4.38032 538.808 13.1121 537.936 6.27222C541.683 30.8734 543.869 55.6876 544.479 80.5655C545.061 98.7567 545.497 121.459 544.479 151.148C543.825 165.701 542.952 182.582 540.408 201.21C539.17 211.332 537.004 221.319 533.937 231.044C532.974 233.889 531.758 236.64 530.301 239.266C529.386 240.786 528.34 242.223 527.175 243.559C525.817 244.961 524.246 246.14 522.521 247.052C516.962 249.818 511.037 251.778 504.926 252.873C469.083 258.736 432.836 261.777 396.518 261.969C370.125 262.624 340.606 262.769 309.269 261.969C276.504 261.412 243.79 259.154 211.258 255.202C202.69 254.108 194.21 252.406 185.883 250.108C183.663 249.476 181.478 248.723 179.34 247.853C178.322 247.853 177.013 246.616 175.85 246.033C174.62 245.38 173.514 244.518 172.578 243.487C169.028 239.879 166.365 235.495 164.798 230.68C159.843 214.286 157.104 197.302 156.655 180.181C155.2 148.823 155.588 117.407 157.818 86.0956C159.327 59.7634 162.239 33.5306 166.543 7.50921C167.46 1.93012 168.722 -3.58642 170.324 -9.00845C170.727 -10.4515 171.237 -11.8622 171.851 -13.2288C172.688 -15.2435 174.042 -17.0008 175.777 -18.3224C178.213 -20.0735 180.913 -21.4245 183.775 -22.3245C191.806 -24.7206 200.028 -26.4247 208.35 -27.4181L218.238 -28.5095C278.13 -32.6839 338.207 -33.5098 398.191 -30.9835C421.021 -30.2559 444.215 -29.2372 467.336 -28.0002H438.253C461.81 -27.3453 485.295 -26.3266 494.311 -25.5262C506.816 -24.7257 514.451 -23.9253 518.595 -23.2704C521.285 -22.8339 520.558 -22.8339 520.631 -22.7611C520.631 -22.7611 519.468 -22.7611 517.723 -22.7611H511.542H497.001C483.114 -22.7611 501.8 -21.4513 480.133 -22.1062C495.765 -21.3058 503.617 -21.1602 519.177 -19.5594C520.995 -19.5594 471.117 -22.9066 481.95 -21.5969C489.221 -21.5969 497.437 -20.8692 505.435 -20.3598C509.434 -20.3598 513.506 -19.705 517.432 -19.2684L520.34 -18.9045H518.595C513.36 -19.4866 506.889 -19.8505 500.564 -20.2143C488.058 -20.9419 476.497 -21.3786 477.661 -21.0875L503.108 -19.9232C508.271 -19.9232 513.287 -19.3411 517.068 -18.9045H519.686H520.34H519.468H516.196C511.47 -19.4139 505.58 -19.7777 501.654 -19.996C507.616 -19.5594 513.287 -19.1956 518.377 -18.5407H520.195V-18.1769C520.223 -17.9938 520.196 -17.8065 520.118 -17.6384C520.041 -17.4702 519.916 -17.3285 519.759 -17.2309C519.759 -17.2309 520.267 -17.2309 520.486 -17.2309V-16.6488L519.977 -16.0667H519.177H516.414L506.235 -16.7944C459.193 -19.4867 411.714 -20.3598 364.236 -20.6509C316.758 -20.942 268.843 -20.0688 222.165 -15.9211Z" fill="#DFC0B8"/>
<path d="M374.052 389.308C374.052 389.308 379.068 389.308 370.998 388.58C345.477 387.489 324.901 387.925 299.526 388.58H297.635C287.893 388.896 278.18 389.82 268.552 391.345C266.093 391.667 263.662 392.177 261.281 392.873C259.767 393.291 258.303 393.876 256.919 394.62L256.192 396.439C255.705 397.366 255.315 398.342 255.029 399.35C254.52 401.605 253.72 403.715 253.356 406.189C250.954 424.862 250.954 443.765 253.356 462.437C255.024 481.241 258.63 499.822 264.117 517.884C263.681 517.084 263.39 516.647 264.553 520.14C265.857 523.936 267.487 527.612 269.425 531.127L271.024 533.601C271.824 534.766 271.024 534.038 272.115 534.693C273.996 535.662 275.969 536.442 278.004 537.021C288.425 539.914 299.012 542.174 309.705 543.788L319.593 545.462C320.824 545.67 322.038 545.962 323.229 546.335C333.408 547.936 360.601 550.919 369.107 551.793C425.02 558.487 478.169 562.416 532.264 565.4C586.359 568.383 642.49 570.566 704.146 568.601C718.784 568.309 733.374 566.825 747.771 564.163C755.042 562.926 763.33 559.36 761.076 558.269V553.321C760.713 551.647 760.422 549.973 760.131 548.373C759.591 545.233 758.887 542.125 758.023 539.059C746.55 500.838 727.373 465.375 701.674 434.859C704.001 436.46 696.948 426.345 690.55 420.306C687.35 417.468 684.515 415.285 684.515 414.485C684.515 413.684 685.169 414.485 686.841 414.485C689.753 415.42 692.483 416.847 694.912 418.705L691.713 416.231L689.168 414.849L686.696 413.393C686.042 412.957 687.132 413.393 688.95 414.485L692.004 416.013L694.839 418.05C696.512 419.287 697.748 420.16 697.457 419.724C693.749 414.849 713.525 430.275 696.73 415.358C694.764 413.748 692.645 412.334 690.404 411.138L687.932 409.828L691.131 411.647C693.18 412.748 695.106 414.065 696.875 415.576C698.547 416.886 698.184 416.595 696.875 415.576C695.203 414.266 694.403 413.393 696.875 414.994C700.237 417.292 703.377 419.898 706.254 422.78C713.089 429.329 718.978 436.533 714.47 430.784C721.516 439.099 727.932 447.928 733.665 457.198C741.866 470.034 749.155 483.432 755.478 497.292C760.073 507.184 764.079 517.341 767.475 527.707C768.493 530.618 769.365 533.674 770.165 536.949C771.16 540.266 771.937 543.644 772.491 547.063C773.229 550.853 773.643 554.699 773.728 558.56C773.73 560.265 773.46 561.96 772.928 563.581C772.162 565.233 771.046 566.698 769.656 567.874C768.655 568.855 767.501 569.666 766.239 570.275C765.232 570.901 764.159 571.414 763.039 571.803C754.889 574.72 746.419 576.65 737.81 577.551C729.085 578.643 719.924 579.371 710.253 579.88C690.913 580.971 669.464 581.262 645.689 581.044C544.351 579.037 443.18 571.872 342.569 559.578C325.337 557.323 308.105 554.776 290.801 551.211C286.511 550.265 282.221 549.246 277.859 548.009C275.59 547.377 273.358 546.624 271.17 545.753C269.909 545.25 268.693 544.642 267.534 543.934C266.016 543.061 264.682 541.899 263.608 540.514C258.493 532.801 254.754 524.257 252.557 515.265C247.977 498.929 244.815 482.228 243.104 465.348C241.239 449.435 240.777 433.389 241.723 417.395C242.106 409.489 243.499 401.663 245.867 394.111C246.813 392.073 247.758 390.108 248.63 388.071C249.606 386.753 250.784 385.599 252.12 384.651C253.173 384.001 254.266 383.418 255.392 382.905C259.038 381.546 262.815 380.57 266.662 379.994C279.519 378.086 292.491 377.065 305.488 376.938C329.263 376.356 349.113 376.938 362.855 376.938H373.034C434.181 378.903 508.125 384.651 559.53 390.254C583.087 392.873 607.008 395.784 630.784 399.35C619.659 398.113 609.407 397.094 600.464 396.366C624.749 398.986 648.961 402.333 658.194 404.225C666.604 405.506 674.914 407.378 683.061 409.828L684.515 410.337H685.096C684.063 410.166 683.042 409.923 682.043 409.609L675.717 408.372C670.991 407.499 665.465 406.772 660.521 406.117C645.98 404.298 665.32 407.863 642.999 404.953C656.425 406.5 669.735 408.931 682.843 412.229C683.715 412.229 671.718 409.246 660.521 407.572C649.324 405.898 639.29 404.298 644.816 405.462C652.523 406.481 660.739 407.718 668.883 409.391C672.954 410.192 677.099 411.065 681.025 412.156L683.933 413.102L682.188 412.52C677.026 410.992 670.337 409.755 664.011 408.591C656.22 407.094 648.357 406.001 640.454 405.316C644.744 405.971 656.086 407.426 666.556 409.246C671.308 409.986 676.016 410.982 680.661 412.229L683.206 413.029H683.86H683.061L679.789 412.083C675.063 410.846 669.101 409.682 665.247 409.027C670.97 409.951 676.629 411.239 682.188 412.884L683.86 413.466C683.892 413.61 683.892 413.759 683.86 413.903C683.845 414.095 683.776 414.28 683.66 414.434C683.544 414.589 683.387 414.707 683.206 414.776C683.206 414.776 683.86 414.776 684.079 414.776L681.752 417.905L681.098 418.414H680.516L677.826 417.686C674.118 416.74 670.555 416.086 667.719 415.503C643.871 411.138 619.368 408.227 595.011 405.607C570.654 402.988 546.079 400.659 521.576 398.331C472.135 394.329 422.984 391.054 374.052 389.308Z" fill="#DFC0B8"/>
</g>
<defs>
<clipPath id="clip0_45_3393">
<rect width="445" height="621" fill="white" transform="matrix(-1 0 0 1 445 0)"/>
</clipPath>
</defs>
</svg>
