<svg width="425" height="156" viewBox="0 0 425 156" fill="none" xmlns="http://www.w3.org/2000/svg">
<g opacity="0.25">
<path d="M388.423 75.9115C385.845 73.1953 385.685 69.727 387.925 65.3169L387.988 65.1963L388.12 65.1618C388.813 64.9723 389.5 64.8 390.182 64.6335C391.625 64.2775 392.989 63.9387 394.284 63.4334C401.45 60.6369 406.434 55.2907 409.086 47.5443C409.739 45.6321 409.338 42.0719 407.952 40.8028C406.646 39.6027 403.34 39.4993 400.9 40.085C398.58 40.6478 396.077 42.1293 394.369 43.9611L393.757 44.6215C390.44 48.1702 387.008 51.8396 384.82 56.0487C379.813 65.6958 372.355 73.6662 365.773 80.7006L365.681 80.7982C363.911 82.6932 361.705 85.0533 357.621 84.0196L357.38 83.9565V83.7095C357.409 82.9745 357.397 82.2625 357.386 81.5619C357.363 80.0861 357.346 78.6965 357.615 77.3528C360.09 65.179 365.097 52.7928 373.357 38.3681C374.961 35.5658 377.539 35.095 380.254 34.8251C388.985 33.9695 398.265 33.0392 407.333 31.885C407.677 31.8391 408.026 31.8103 408.387 31.7759C410.707 31.5577 413.102 31.328 414.815 28.2731C408.513 27.7333 402.407 28.474 396.5 29.1861C391.276 29.8177 385.874 30.4724 380.398 30.2255L379.997 30.2082L380.123 29.8235C380.827 27.6242 382.076 25.7522 383.273 23.9376C384.94 21.4282 386.653 18.8442 386.997 15.3184C386.332 15.571 385.708 15.7777 385.147 15.9615C383.835 16.3922 382.804 16.731 382.099 17.3741L381.664 17.7703C378.753 20.4176 375.746 23.1566 373.512 26.3379C370.539 30.5815 366.557 32.643 360.611 33.0277C356.212 33.3148 351.778 33.9809 347.481 34.6241C345.66 34.8997 343.838 35.1696 342.016 35.4165L341.833 36.8291C345.855 38.0465 350.036 37.6618 354.081 37.2885C357.329 36.9899 360.691 36.6856 364.008 37.1794L364.323 37.2254L364.266 37.5412C364.192 37.9431 364.157 38.2819 364.129 38.5633C364.071 39.0974 364.031 39.4821 363.785 39.7692L359.792 44.409C348.587 57.4326 337.004 70.9041 325.472 84.0426C324.395 85.2715 322.94 86.1385 321.256 87.1435C320.408 87.6488 319.538 88.1656 318.621 88.7858L318.232 89.0499L318.146 88.5905C317.109 83.0205 318.93 79.1042 320.701 75.3085C321.153 74.3323 321.583 73.4135 321.967 72.4546L322.224 71.8172C323.404 68.9345 324.63 65.9485 322.201 63.1405C319.257 59.7353 315.069 60.3268 312.079 61.4235C307.955 62.9338 304.535 64.8058 301.911 66.9706C296.698 71.2774 293.186 77.2954 291.17 85.3806C290.454 88.246 289.95 91.41 293.026 92.6504C294.979 93.4371 298.164 92.8054 300.118 91.7373C302.604 90.3821 304.832 88.6135 307.181 86.7357C308.178 85.9433 309.203 85.1279 310.263 84.3297L310.624 84.0598L310.744 84.502C310.876 84.9901 310.979 85.4035 311.071 85.771C311.237 86.4257 311.352 86.8965 311.512 87.3559C312.755 90.9391 314.342 93.0408 316.375 93.7759C318.352 94.4879 320.792 93.9366 323.834 92.0819C326.859 90.2443 329.832 87.712 332.679 84.5594C336.454 80.3733 340.149 75.9861 343.718 71.7425C345.751 69.325 347.854 66.8271 349.945 64.3981C350.615 63.6171 351.4 62.951 352.482 62.0265C353.078 61.5212 353.766 60.9355 354.579 60.2062L355.341 59.5228L355.083 60.5105C354.659 62.1299 354.258 63.5654 353.892 64.8862C353.135 67.5851 352.54 69.7155 352.167 71.9263L352.144 72.0526C351.549 75.5669 350.936 79.1961 351.222 82.7104C351.503 86.0926 352.929 88.6479 355.249 89.9113C357.541 91.1631 360.422 90.9851 363.361 89.4117C366.552 87.7005 369.256 84.9958 371.868 82.3773L372.24 82.0041C373.924 80.3216 375.374 78.4668 377.046 76.3192C377.825 75.3257 378.633 74.2864 379.521 73.1953L379.859 72.7819L380.048 73.2815C382.844 80.6891 388.028 84.2034 395.458 83.7325C395.515 83.7325 395.572 83.7268 395.63 83.721C399.565 83.4397 402.561 82.5955 404.526 81.2116C410.209 77.2035 415.64 72.667 420.893 68.2742L423.419 66.1667C424.003 65.6786 424.33 64.8632 424.679 64.0019C424.748 63.8353 424.811 63.6688 424.885 63.4965C420.595 65.2135 416.894 67.5736 413.308 69.859C412.558 70.3356 411.813 70.8123 411.062 71.2831C407.247 73.6719 403.787 75.7794 400.029 77.4332C397.348 78.6104 392.279 79.977 388.418 75.9057M391.631 59.3333C393.441 52.1267 396.861 48.3368 404.251 45.3565L404.841 45.1153L404.658 45.7298C402.79 52.0176 398.906 56.3186 392.067 59.6836L391.471 59.9765L391.631 59.3333ZM313.019 69.549C309.696 75.2453 305.17 79.9196 299.562 83.4397L298.743 83.9565L299.115 83.0607C301.464 77.4217 304.913 71.3578 312.669 69.0953L313.408 68.8771L313.019 69.5432V69.549Z" fill="#C2C59B"/>
<path d="M245.966 58.34C242.294 56.1809 239.452 58.4721 236.703 60.6886L236.279 61.0274C232.716 63.8756 229.204 66.9363 225.807 69.8936C224.346 71.1684 222.88 72.4432 221.402 73.7122L220.995 74.0625L220.898 73.5342C219.93 68.2341 218.698 65.5868 216.79 64.6853C214.911 63.7952 212.167 64.5015 207.619 67.0454C205.746 68.0905 203.901 69.2045 202.114 70.2783C201.306 70.7664 200.504 71.243 199.708 71.7139L199.53 71.8173L199.364 71.6909C192.794 66.6894 192.559 66.609 186.83 67.2579C180.895 67.9297 175.052 71.444 170.802 76.8993C166.545 82.3602 164.552 88.9007 165.337 94.8498C166.036 100.173 168.052 103.722 171.163 105.117C174.193 106.478 178.037 105.663 182.276 102.763C190.33 97.2558 195.715 90.3995 198.27 82.3832C200.665 74.8722 206.834 72.7762 213.365 70.5597L213.88 70.3817L213.76 70.9157C212.649 75.9001 210.907 80.4423 209.068 85.0419C208.53 86.3913 207.963 87.7293 207.401 89.073C206.571 91.0484 205.711 93.0869 204.95 95.1254L204.864 95.3494C204.073 97.4625 203.248 99.6504 205.975 100.856C208.41 101.936 209.63 100.179 210.81 98.4789C210.953 98.2779 211.09 98.077 211.228 97.8817C212.019 96.7964 212.717 95.6078 213.399 94.4593C214.287 92.9548 215.209 91.4044 216.338 90.0377C222.542 82.5267 228.992 74.987 236.055 66.9765C236.76 66.1783 237.82 65.7534 239.046 65.2595C239.642 65.0184 240.26 64.7714 240.885 64.4614L241.498 64.157L241.32 64.8174C240.002 69.6811 238.656 74.4989 237.356 79.1617C234.4 89.7334 231.61 99.725 229.221 109.975C225.183 127.351 224.215 147.513 226.97 155.632C226.999 155.586 227.022 155.546 227.05 155.5C227.319 155.07 227.549 154.702 227.652 154.312C228.024 152.87 228.396 151.326 228.551 149.769C230.688 128.236 235.884 105.864 244.419 81.3725L244.746 80.4423C246.075 76.6408 247.45 72.7073 248.263 68.7279L248.389 68.1192C249.117 64.6336 249.941 60.6829 245.949 58.3343M173.632 99.6906C168.029 92.2255 172.417 86.3684 175.906 81.0395C176.725 80.4767 177.756 80.3332 178.696 80.649L186.962 83.434C188.658 84.0083 189.505 85.9205 188.755 87.5455C186.962 91.4331 176.937 104.089 173.632 99.6906ZM184.842 79.4374C177.143 76.1125 187.764 72.9657 193.693 75.2225L194.42 75.4981C194.42 75.4981 192.547 82.7564 184.842 79.4374Z" fill="#C2C59B"/>
<path d="M157.185 65.7075L157.151 65.6328C156.469 64.2777 155.484 63.4335 154.384 63.2498C153.313 63.0718 152.19 63.5139 151.159 64.5361C150.523 65.162 150.065 65.9429 149.572 66.7698C149.263 67.2924 148.942 67.8379 148.57 68.3375C147.132 70.2784 145.7 72.2308 144.267 74.1774C139.925 80.0863 135.44 86.1961 130.811 92.0418C129.448 93.7645 127.586 95.1312 125.787 96.452C124.974 97.0492 124.137 97.6636 123.358 98.301L123.192 98.4388L121.17 97.2329L121.548 94.5914C121.817 92.6965 122.092 90.8072 122.373 88.9123C122.528 87.8672 122.722 86.8106 122.911 85.7884C123.696 81.5276 124.515 77.1175 122.596 72.8337C121.926 71.335 121.061 69.8937 120.23 68.4925C118.689 65.9027 117.091 63.2268 116.547 60.0111C116.341 58.7937 113.064 56.8815 111.237 56.916C109.449 56.9734 106.952 58.564 106.007 60.3097C105.434 61.3606 106.35 63.8125 107.444 65.6386C108.132 66.7871 109.203 67.7288 110.337 68.7222C110.836 69.1586 111.351 69.6123 111.838 70.0832L112.01 70.2497L111.89 70.4564C107.273 78.4785 101.189 87.4652 91.0379 93.2822L90.3447 93.6784L94.8531 79.7016C88.9069 73.5056 86.14 71.9494 76.8769 77.0601C69.6074 81.0682 63.5352 87.0747 58.832 94.9188C57.3369 97.4167 56.5693 99.5011 56.4833 101.298C56.3745 103.699 56.7526 106.914 58.1847 108.08C59.634 109.263 63.2545 109.527 65.2251 108.597C68.7481 106.932 71.9962 104.56 75.1354 102.269C75.7427 101.821 76.3556 101.379 76.9628 100.937C78.3492 99.9375 79.6324 98.7317 80.8754 97.566C81.454 97.0204 82.0326 96.4749 82.6284 95.9466L82.869 95.7342L83.0695 95.9868C86.0025 99.6102 87.9903 101.132 89.9323 101.235C91.6107 101.321 93.4152 100.311 95.7811 97.9507C99.8655 93.8679 103.641 89.3487 107.29 84.973C108.877 83.0723 110.521 81.1027 112.165 79.1962L115.734 75.0618L115.877 75.6417C116.667 78.8976 116.421 81.7056 116.18 84.416L116.089 85.5013C115.997 86.6096 115.871 87.7408 115.745 88.8376C115.407 91.8294 115.058 94.9188 115.453 97.8646C115.802 100.472 116.908 102.39 118.649 103.417C120.494 104.503 122.997 104.514 125.696 103.452C127.139 102.878 128.543 102.108 129.895 101.362C130.53 101.011 131.172 100.655 131.819 100.322L132.094 100.179L132.232 100.454C134.953 105.887 136.786 107.012 141.168 105.961C146.822 104.595 150.872 101.936 153.204 98.0483C159.162 88.1313 158.537 76.9051 157.391 66.253C157.374 66.0808 157.271 65.8798 157.174 65.6903M84.0261 82.01C82.1071 89.5899 72.4831 99.1451 62.5728 103.314L61.8911 103.601L62.1718 102.912C66.1073 93.2018 73.7205 85.6449 83.6137 81.6482L84.1751 81.4185L84.0261 82.01ZM143.815 97.7957C142.24 98.9786 140.492 99.6332 138.642 99.7481C137.021 99.8514 135.319 99.5413 133.572 98.8178L133.206 98.6685L149.916 76.3308L149.996 77.1118C150.964 86.2823 148.598 94.2124 143.809 97.8014" fill="#C2C59B"/>
<path d="M319.205 13.1995L322.637 12.6368C334.713 10.6499 347.195 8.59989 359.414 6.33167C359.752 6.26851 360.096 6.21108 360.445 6.14792C363.504 5.61962 366.666 5.0741 368.603 1.91008C365.005 0.0380747 361.619 0.61805 358.348 1.18654C357.879 1.26693 357.415 1.34733 356.945 1.42198C318.489 7.45717 282.806 13.1363 247.851 18.7868C242.294 19.6826 236.881 21.0665 232.315 22.3011C230.7 22.7375 229.153 23.53 227.652 24.2937C227.028 24.6095 226.403 24.9311 225.773 25.2239L226.145 26.671C226.93 26.6423 227.721 26.6366 228.511 26.6251C230.356 26.6021 232.263 26.5849 234.085 26.315C244.362 24.799 254.799 23.2026 264.893 21.658C271.51 20.6473 278.126 19.6367 284.748 18.6375C286.209 18.4193 287.693 18.3044 289.411 18.1724C290.288 18.1035 291.233 18.0345 292.276 17.9369L292.74 17.8967L292.596 18.3389C291.095 22.9959 289.612 27.5381 288.151 32.0114C284.8 42.2787 281.632 51.9775 278.624 61.8256C275.754 71.2373 273.2 80.9246 270.725 90.2903L269.888 93.4543C269.808 93.7529 269.717 94.063 269.619 94.3731C268.943 96.5782 268.244 98.8636 272.088 100.764C276.585 90.876 279.558 80.4422 282.434 70.3472C283.505 66.5917 284.611 62.7099 285.774 58.92C288.793 49.1178 292.046 39.1434 295.191 29.502C296.618 25.1378 298.044 20.7564 299.471 16.3348L299.528 16.1511L299.717 16.1223C301.665 15.8295 303.635 15.5481 305.629 15.2553C310.068 14.6121 314.657 13.946 319.2 13.1995" fill="#C2C59B"/>
<path d="M41.9899 110.928C39.4636 114.167 36.8514 117.515 33.9299 120.495C29.8569 124.652 25.5318 128.109 21.0865 130.762C18.8409 132.106 16.7901 132.485 15.0085 131.894C13.2155 131.296 11.7948 129.757 10.7866 127.311C8.78161 122.459 7.60726 117.417 7.3953 112.737C6.80526 99.8456 9.00502 87.4422 13.9373 75.8714C19.7575 62.2046 27.0213 48.2565 40.6093 38.8218C44.7969 35.9162 49.7005 33.5216 54.7875 31.9081C57.8064 30.9491 59.9202 30.995 61.2493 32.0459C62.584 33.1025 63.1282 35.1754 62.9048 38.3854C62.7043 41.2853 62.1429 44.1507 61.5013 47.4698C61.2149 48.9226 60.9285 50.4213 60.6363 52.0579C65.918 48.6986 66.8976 44.5354 67.8485 40.5043C69.0744 35.3018 68.3125 30.9721 65.7061 28.3076C63.6552 26.2117 60.5389 25.2412 56.7524 25.4824C55.7327 25.5455 54.6672 25.7006 53.5558 25.936C48.7439 26.9811 43.8803 28.9967 39.8589 31.6094C34.2793 35.2329 29.7022 39.1319 26.2651 43.186C8.68422 63.9158 0.160164 87.5225 0.933516 113.352C1.07673 118.215 2.17661 123.355 4.0212 127.828C6.25533 133.249 9.59506 136.752 13.6738 137.957C17.8098 139.175 22.5874 138.021 27.5025 134.615C28.7513 133.748 30.0459 132.789 31.0656 131.658C40.1682 121.557 46.1775 112.134 49.9068 102.091C48.5205 103.153 47.2258 104.428 45.8968 106.042C44.5735 107.644 43.2674 109.315 42.0071 110.934" fill="#C2C59B"/>
</g>
<path d="M78.0457 93.5404C75.5882 95.7914 72.4833 97.0088 68.7426 97.0088C60.3617 97.0088 54.1577 90.6463 54.1577 82.963C54.1577 75.2798 60.1498 68.8828 68.4905 68.8828C73.1593 68.8828 76.4074 70.9902 77.9369 72.5292L76.0464 74.9237C74.3336 73.2068 71.8761 71.9952 68.2041 71.9952C62.2521 71.9952 57.7953 76.6062 57.7953 83.1468C57.7953 89.2222 62.7849 93.9424 68.7769 93.9424C72.4489 93.9424 75.0497 92.6216 76.4761 91.2951L78.0457 93.5461V93.5404Z" fill="#F2EEE9"/>
<path d="M108.636 96.4747L105.749 90.1122H92.9114L89.9898 96.4747H86.209L99.293 68.4521L112.417 96.4747H108.636ZM99.9002 77.2781C99.6481 76.7441 99.3674 75.9918 99.293 75.7392C99.2242 75.9918 98.9722 76.7383 98.7201 77.2781L94.2633 86.9999H104.317L99.8944 77.2781H99.9002Z" fill="#F2EEE9"/>
<path d="M137.731 96.4749L127.036 85.8228H125.999V96.4749H122.579V69.417H127.964C132.598 69.417 138.59 70.8124 138.59 77.4218C138.59 81.7802 135.526 85.0017 130.817 85.6448L142.549 96.4749H137.737H137.731ZM127.93 82.7851C132.564 82.7851 135.027 80.5342 135.027 77.462C135.027 74.0683 132.638 72.4949 128.646 72.4949H126.005V82.7909H127.93V82.7851Z" fill="#F2EEE9"/>
<path d="M151.457 90.8645C152.631 92.1508 154.951 93.9022 158.411 93.9022C161.442 93.9022 163.51 92.1852 163.51 89.5036C163.51 82.429 151.21 84.1402 151.21 75.8885C151.21 71.2774 155.026 68.8484 159.196 68.8484C162.868 68.8484 165.543 70.8869 166.294 71.6736L164.512 74.1773C163.263 72.9599 161.407 71.9263 159.236 71.9263C156.916 71.9263 154.779 73.1035 154.779 75.6416C154.779 81.47 167.187 79.8966 167.187 89.4748C167.187 93.2992 163.87 97.0145 158.131 97.0145C154.35 97.0145 150.821 94.8726 149.606 93.3681L151.463 90.8645H151.457Z" fill="#F2EEE9"/>
<path d="M221.987 77.0312L222.021 96.4748H218.601L218.635 68.7048L239.029 89.2911L238.995 69.4169H242.415L242.38 97.4395L221.987 77.0312Z" fill="#F2EEE9"/>
<path d="M277.072 96.4747V72.4947H269.189V69.457H288.374V72.4947H280.492V96.4747H277.072Z" fill="#F2EEE9"/>
<path d="M316.255 96.4747L313.368 90.1122H300.53L297.609 96.4747H293.828L306.912 68.4521L320.036 96.4747H316.255ZM307.519 77.2781C307.267 76.7441 306.987 75.9918 306.912 75.7392C306.843 75.9918 306.591 76.7383 306.339 77.2781L301.882 86.9999H311.936L307.514 77.2781H307.519Z" fill="#F2EEE9"/>
<path d="M333.372 96.4747V72.4947H325.49V69.457H344.675V72.4947H336.792V96.4747H333.372Z" fill="#F2EEE9"/>
<path d="M355.799 96.4403V69.457H370.527V72.4947H359.225V80.4995H368.316V83.5717H359.225V93.437L371.667 93.4026V96.4403H355.799Z" fill="#F2EEE9"/>
<path d="M192.015 96.7273C184.694 96.7273 178.123 91.2204 178.123 82.9228C178.123 74.6251 184.694 69.2043 192.015 69.2043C199.336 69.2043 205.906 74.7112 205.906 82.9228C205.906 91.1343 199.336 96.7273 192.015 96.7273ZM192.015 71.6219C186.189 71.6219 180.947 76.0837 180.947 82.9228C180.947 89.7619 186.189 94.2639 192.015 94.2639C197.841 94.2639 203.082 89.7619 203.082 82.9228C203.082 76.0837 197.801 71.6219 192.015 71.6219Z" fill="#F2EEE9"/>
<path d="M192.015 97.0375C185.031 97.0375 177.813 91.7603 177.813 82.9228C177.813 74.0854 185.037 68.8943 192.015 68.8943C198.992 68.8943 206.216 74.1428 206.216 82.9228C206.216 91.7028 198.992 97.0375 192.015 97.0375ZM192.015 69.5145C185.335 69.5145 178.432 74.5275 178.432 82.9228C178.432 91.3181 185.341 96.4173 192.015 96.4173C198.688 96.4173 205.597 91.3698 205.597 82.9228C205.597 74.4758 198.688 69.5145 192.015 69.5145ZM192.015 94.574C184.894 94.574 180.638 88.6479 180.638 82.9228C180.638 76.3019 185.53 71.3118 192.015 71.3118C199.135 71.3118 203.391 77.2149 203.391 82.9228C203.391 88.6307 199.135 94.574 192.015 94.574ZM192.015 71.932C186.802 71.932 181.256 75.7851 181.256 82.9228C181.256 90.0605 186.796 93.9538 192.015 93.9538C198.746 93.9538 202.773 88.3436 202.773 82.9228C202.773 77.502 198.751 71.932 192.015 71.932Z" fill="#F2EEE9"/>
</svg>
