<svg width="170" height="63" viewBox="0 0 170 63" fill="none" xmlns="http://www.w3.org/2000/svg">
<path d="M155.39 30.6107C154.355 29.5246 154.29 28.1369 155.19 26.3733L155.213 26.3223L155.264 26.3083C155.543 26.2341 155.817 26.1645 156.09 26.0949C156.671 25.951 157.214 25.8164 157.733 25.6168C160.606 24.4983 162.607 22.3587 163.669 19.2585C163.934 18.4927 163.772 17.0679 163.215 16.562C162.69 16.084 161.367 16.0422 160.388 16.2742C159.46 16.497 158.453 17.0911 157.771 17.8244L157.525 18.0889C156.193 19.5091 154.819 20.9757 153.942 22.6604C151.937 26.5172 148.943 29.7056 146.302 32.5228L146.265 32.5599C145.555 33.3164 144.673 34.2632 143.035 33.8455L142.938 33.8223V33.7249C142.947 33.4325 142.942 33.1447 142.938 32.8662C142.928 32.2768 142.919 31.7199 143.03 31.1815C144.024 26.313 146.029 21.3563 149.342 15.5874C149.987 14.4642 151.018 14.2786 152.108 14.1718C155.608 13.8284 159.33 13.4571 162.969 12.9976C163.108 12.9791 163.247 12.9651 163.391 12.9512C164.324 12.863 165.285 12.7748 165.967 11.5496C163.437 11.3361 160.991 11.6285 158.625 11.9163C156.531 12.1669 154.364 12.4314 152.169 12.3339L152.006 12.3247L152.057 12.1715C152.34 11.2897 152.842 10.5425 153.32 9.81846C153.988 8.81598 154.675 7.78102 154.814 6.37012C154.55 6.47222 154.299 6.55576 154.072 6.63002C153.547 6.80174 153.129 6.94096 152.851 7.19622L152.675 7.35403C151.51 8.41221 150.303 9.50751 149.407 10.7792C148.215 12.4778 146.618 13.3039 144.237 13.4571C142.473 13.5731 140.696 13.8377 138.974 14.0976C138.245 14.2089 137.512 14.3157 136.783 14.4178L136.709 14.984C138.324 15.4713 139.995 15.3182 141.619 15.1697C142.924 15.049 144.27 14.9283 145.602 15.1279L145.727 15.1465L145.704 15.2718C145.676 15.4342 145.662 15.5688 145.648 15.6802C145.625 15.8937 145.611 16.0468 145.513 16.1629L143.912 18.0193C139.42 23.2313 134.774 28.6196 130.151 33.8734C129.72 34.3653 129.135 34.7134 128.462 35.1126C128.123 35.3121 127.77 35.521 127.404 35.7716L127.246 35.8783L127.213 35.6927C126.796 33.465 127.529 31.8963 128.239 30.3833C128.42 29.9934 128.592 29.6221 128.75 29.2415L128.852 28.9863C129.325 27.8306 129.817 26.6379 128.842 25.5147C127.664 24.1502 125.984 24.3916 124.781 24.8278C123.129 25.4312 121.755 26.1784 120.707 27.0463C118.618 28.7681 117.207 31.1769 116.4 34.4071C116.112 35.5535 115.908 36.8205 117.142 37.3171C117.927 37.6327 119.203 37.3774 119.987 36.9504C120.985 36.4074 121.876 35.702 122.818 34.9501C123.217 34.6345 123.631 34.305 124.053 33.9894L124.197 33.8826L124.243 34.059C124.294 34.2539 124.336 34.421 124.373 34.5649C124.438 34.8248 124.484 35.0151 124.549 35.2007C125.046 36.6348 125.687 37.4749 126.499 37.7673C127.292 38.0504 128.267 37.8323 129.488 37.0897C130.699 36.3564 131.892 35.34 133.033 34.0822C134.546 32.4068 136.027 30.6524 137.461 28.9584C138.278 27.9931 139.118 26.9952 139.958 26.0206C140.227 25.7096 140.543 25.4405 140.974 25.0738C141.211 24.8696 141.49 24.6375 141.814 24.3452L142.121 24.0713L142.019 24.4658C141.847 25.1109 141.689 25.6865 141.541 26.2155C141.239 27.2923 140.998 28.1462 140.849 29.0327L140.84 29.0837C140.603 30.49 140.352 31.9427 140.468 33.3489C140.58 34.6995 141.155 35.7252 142.084 36.2311C143.003 36.7323 144.158 36.658 145.337 36.0315C146.618 35.3492 147.699 34.2679 148.748 33.219L148.897 33.0705C149.57 32.3975 150.154 31.6549 150.823 30.7963C151.134 30.3972 151.459 29.9841 151.816 29.5479L151.951 29.3808L152.025 29.5804C153.143 32.5414 155.223 33.9476 158.202 33.762C158.225 33.762 158.249 33.762 158.272 33.7574C159.85 33.646 161.052 33.3072 161.836 32.7549C164.115 31.149 166.292 29.3344 168.399 27.58L169.41 26.7353C169.647 26.5404 169.777 26.2155 169.916 25.8675C169.944 25.8025 169.972 25.7329 170 25.6679C168.278 26.3548 166.798 27.2969 165.359 28.2112C165.057 28.4015 164.76 28.5918 164.458 28.7821C162.931 29.7381 161.544 30.5828 160.035 31.2418C158.963 31.7106 156.926 32.2583 155.38 30.6292M156.675 23.9832C157.399 21.101 158.773 19.588 161.734 18.3906L161.971 18.2931L161.897 18.5391C161.149 21.0546 159.59 22.7765 156.847 24.1224L156.61 24.2384L156.675 23.9785V23.9832ZM125.157 28.0673C123.825 30.3461 122.011 32.2165 119.76 33.6227L119.43 33.827L119.579 33.4696C120.521 31.214 121.904 28.7867 125.014 27.8863L125.311 27.7981L125.153 28.0673H125.157Z" fill="#8C594D"/>
<path d="M98.2712 23.584C96.8 22.7208 95.6583 23.6351 94.5583 24.5216L94.3912 24.6561C92.9618 25.7978 91.5555 27.0185 90.1957 28.202C89.6109 28.7125 89.0215 29.223 88.4274 29.7289L88.265 29.8681L88.2278 29.6593C87.838 27.5383 87.346 26.4801 86.5802 26.1181C85.8284 25.7607 84.7284 26.0439 82.9045 27.0603C82.1526 27.478 81.4147 27.9235 80.6953 28.3505C80.3704 28.5454 80.0502 28.7357 79.7299 28.926L79.6603 28.9677L79.5954 28.9167C76.9592 26.9164 76.8664 26.8839 74.569 27.1438C72.1881 27.413 69.849 28.8192 68.1411 31.0006C66.4331 33.1865 65.6349 35.7995 65.9505 38.1804C66.2336 40.3106 67.0411 41.7308 68.285 42.2878C69.5009 42.8308 71.0418 42.5059 72.7404 41.3456C75.9706 39.1411 78.1288 36.3982 79.1544 33.1958C80.1152 30.193 82.5889 29.353 85.2065 28.4665L85.4153 28.3969L85.3689 28.6104C84.9234 30.6061 84.2225 32.4207 83.4892 34.2586C83.2711 34.797 83.0483 35.3354 82.8209 35.8691C82.4868 36.6581 82.1433 37.4749 81.837 38.2917L81.8045 38.3799C81.4843 39.2246 81.1594 40.1018 82.2501 40.5844C83.2293 41.0161 83.7167 40.3153 84.1901 39.633C84.2457 39.5495 84.3014 39.4706 84.3571 39.3963C84.6727 38.9601 84.9558 38.4867 85.2297 38.0272C85.587 37.4285 85.9537 36.8066 86.4085 36.2589C88.8961 33.2561 91.4813 30.2394 94.3123 27.0324C94.5954 26.7121 95.0178 26.5451 95.5097 26.3455C95.7511 26.248 95.9971 26.1506 96.2477 26.0253L96.4937 25.9046L96.424 26.1691C95.895 28.1138 95.3566 30.0445 94.8321 31.9056C93.6487 36.1336 92.5255 40.1296 91.5694 44.2324C89.9497 51.1801 89.5598 59.2464 90.6644 62.4952C90.6737 62.4766 90.6876 62.4627 90.6969 62.4441C90.8036 62.2724 90.8965 62.1239 90.9382 61.9707C91.0868 61.3952 91.2353 60.778 91.3002 60.1514C92.1589 51.5375 94.2381 42.5894 97.6632 32.792L97.7932 32.4207C98.3269 30.8985 98.8792 29.3251 99.2041 27.7332L99.2551 27.4919C99.5475 26.0995 99.877 24.5169 98.2758 23.5794M69.2689 40.125C67.0226 37.1407 68.7816 34.797 70.1785 32.6621C70.508 32.4393 70.9211 32.379 71.297 32.5089L74.6108 33.6228C75.2884 33.8502 75.6318 34.616 75.3302 35.2704C74.6108 36.8251 70.5916 41.8886 69.2689 40.125ZM73.7661 32.0216C70.6798 30.6942 74.9357 29.4319 77.3119 30.3369L77.6043 30.4483C77.6043 30.4483 76.8525 33.3536 73.7661 32.0216Z" fill="#8C594D"/>
<path d="M62.6739 26.5312L62.6599 26.5034C62.3861 25.9604 61.9916 25.6216 61.5507 25.552C61.1191 25.4823 60.6735 25.6587 60.2558 26.0671C60.0006 26.3177 59.8149 26.6287 59.62 26.9629C59.4947 27.1717 59.3647 27.3898 59.2162 27.5894C58.6407 28.3645 58.0652 29.1442 57.4897 29.9239C55.7493 32.2862 53.9486 34.7321 52.0921 37.0712C51.5445 37.7627 50.7972 38.3058 50.0779 38.8348C49.753 39.0715 49.4142 39.3175 49.1032 39.5728L49.0383 39.6285L48.2261 39.1458L48.3792 38.0876C48.486 37.3311 48.5974 36.5746 48.7087 35.8181C48.7691 35.4004 48.848 34.9781 48.9269 34.5697C49.2425 32.8664 49.5673 31.1027 48.8016 29.3855C48.5324 28.7868 48.1889 28.2067 47.8548 27.6497C47.2375 26.6148 46.597 25.5427 46.3789 24.2571C46.2954 23.7698 44.9819 23.0086 44.2486 23.0179C43.5339 23.0411 42.5314 23.6769 42.1508 24.3731C41.9234 24.7954 42.2901 25.7747 42.7263 26.508C43.0002 26.9675 43.4318 27.3434 43.8866 27.7426C44.0862 27.9189 44.295 28.0999 44.4853 28.2902L44.5549 28.3552L44.5085 28.4387C42.6567 31.6504 40.2155 35.2426 36.1499 37.5678L35.8714 37.7256L37.6814 32.1331C35.2959 29.6547 34.1867 29.0328 30.4738 31.0749C27.5592 32.6761 25.1226 35.0802 23.2383 38.2176C22.6396 39.2154 22.3286 40.0508 22.2961 40.7702C22.2544 41.7309 22.4029 43.0165 22.9784 43.4852C23.5585 43.9586 25.0112 44.0654 25.8002 43.6941C27.2111 43.0304 28.5152 42.079 29.773 41.1647C30.019 40.9883 30.2603 40.8073 30.5063 40.631C31.0632 40.2318 31.5784 39.7491 32.075 39.2804C32.307 39.0622 32.5391 38.8441 32.7758 38.6306L32.8733 38.5471L32.9568 38.6492C34.131 40.0972 34.9293 40.7052 35.709 40.747C36.3819 40.7841 37.1059 40.3757 38.0527 39.4335C39.691 37.7999 41.2041 35.9945 42.666 34.2448C43.3018 33.4836 43.9609 32.6993 44.6199 31.9335L46.0494 30.2812L46.1051 30.5133C46.4207 31.8174 46.3232 32.9406 46.2257 34.022L46.1886 34.4536C46.1515 34.8992 46.1004 35.3494 46.054 35.7856C45.9194 36.983 45.7802 38.2176 45.938 39.3964C46.0772 40.4407 46.5228 41.2065 47.2189 41.6195C47.9615 42.0558 48.964 42.0604 50.0454 41.6334C50.6255 41.406 51.1871 41.0951 51.7301 40.798C51.9854 40.6588 52.2406 40.5149 52.5005 40.3803L52.6119 40.3246L52.6676 40.436C53.7583 42.608 54.4962 43.0582 56.2506 42.6405C58.5154 42.0929 60.1398 41.0301 61.0773 39.4753C63.4675 35.5072 63.2169 31.0192 62.7574 26.7586C62.7481 26.689 62.711 26.6101 62.6692 26.5312M33.342 33.052C32.5716 36.0827 28.7148 39.9069 24.742 41.5731L24.4682 41.6891L24.5796 41.4153C26.1576 37.5307 29.2114 34.5093 33.1796 32.9081L33.407 32.8153L33.3466 33.052H33.342ZM57.3134 39.3686C56.6822 39.8419 55.9814 40.1018 55.2388 40.1483C54.589 40.19 53.9068 40.0647 53.206 39.777L53.0575 39.7166L59.7592 30.7825L59.7917 31.0934C60.1816 34.7646 59.2302 37.9345 57.3134 39.3686Z" fill="#8C594D"/>
<path d="M127.635 5.53013L129.014 5.30272C133.855 4.50909 138.858 3.68758 143.759 2.78257C143.893 2.75936 144.033 2.73153 144.172 2.70832C145.397 2.49947 146.664 2.28133 147.444 1.0143C146 0.267082 144.645 0.49914 143.332 0.726554C143.141 0.759042 142.956 0.791536 142.77 0.819382C127.352 3.23276 113.044 5.50692 99.0276 7.7625C96.7999 8.11987 94.6278 8.67215 92.7992 9.16875C92.1541 9.34511 91.5322 9.66072 90.9289 9.96703C90.6782 10.0923 90.4276 10.2223 90.1724 10.3383L90.3209 10.9185C90.6365 10.9092 90.9521 10.9045 91.2723 10.8999C92.0103 10.8906 92.776 10.8813 93.5047 10.7746C97.626 10.1666 101.808 9.53076 105.855 8.91349C108.509 8.50971 111.159 8.10595 113.814 7.70681C114.399 7.61863 114.993 7.57221 115.685 7.52116C116.037 7.49331 116.418 7.46546 116.831 7.42833L117.017 7.40977L116.961 7.58614C116.358 9.44723 115.763 11.2665 115.179 13.0534C113.833 17.1607 112.566 21.0407 111.359 24.9764C110.208 28.7403 109.182 32.6157 108.194 36.3611L107.86 37.6281C107.827 37.7487 107.79 37.8694 107.753 37.9947C107.484 38.8766 107.201 39.7908 108.741 40.552C110.547 36.5977 111.735 32.4208 112.891 28.383C113.318 26.8793 113.763 25.3291 114.232 23.8115C115.443 19.8898 116.747 15.903 118.005 12.0462C118.576 10.3012 119.152 8.54685 119.722 6.77859L119.746 6.70432L119.82 6.69505C120.6 6.57902 121.393 6.463 122.191 6.34697C123.969 6.09171 125.812 5.82251 127.635 5.52548" fill="#8C594D"/>
<path d="M16.4856 44.6221C15.4738 45.917 14.4249 47.2583 13.2554 48.4511C11.6217 50.1126 9.89057 51.4956 8.10838 52.5584C7.208 53.0968 6.38653 53.25 5.67179 53.0086C4.95242 52.7719 4.38156 52.1547 3.97778 51.1754C3.17487 49.2354 2.70612 47.2165 2.61794 45.3461C2.38124 40.1899 3.26305 35.2285 5.24017 30.6013C7.57465 25.1341 10.4846 19.5554 15.9333 15.7822C17.6134 14.6173 19.5766 13.6612 21.6187 13.0161C22.83 12.6309 23.6747 12.6495 24.2084 13.0718C24.7421 13.4942 24.9603 14.3203 24.8721 15.6059C24.7932 16.7661 24.5658 17.9125 24.3105 19.2399C24.1945 19.82 24.0785 20.4187 23.9624 21.0778C26.0788 19.7318 26.4733 18.0703 26.8539 16.4552C27.3458 14.376 27.0395 12.6448 25.9952 11.5774C25.1738 10.7373 23.9253 10.3521 22.403 10.4449C21.9946 10.4728 21.5676 10.5331 21.1221 10.6259C19.1914 11.0436 17.2421 11.8512 15.6316 12.8955C13.3946 14.3435 11.5614 15.9029 10.1783 17.5273C3.12846 25.8163 -0.287402 35.261 0.018912 45.5875C0.0792466 47.5321 0.515512 49.5881 1.25809 51.3796C2.15383 53.547 3.49047 54.9486 5.12878 55.4313C6.78566 55.9186 8.70244 55.4592 10.6749 54.0947C11.1762 53.7466 11.696 53.366 12.1044 52.9112C15.7569 48.8734 18.1657 45.1048 19.6601 41.0856C19.1032 41.5126 18.588 42.0185 18.0497 42.6636C17.5159 43.3041 16.9961 43.9724 16.4902 44.6221" fill="#8C594D"/>
</svg>
