<svg width="236" height="5" viewBox="0 0 236 5" fill="none" xmlns="http://www.w3.org/2000/svg">
<path d="M116.618 4.72999C119.586 4.68081 123.416 4.50048 126.351 4.54966C126.998 4.36933 127.926 4.35294 128.855 4.32015L128.954 4.56605L129.733 4.48409C130.048 4.54966 129.137 4.53327 129.7 4.61523L129.999 4.46769C130.065 4.54966 132.005 4.53327 130.695 4.6972H133.729C134.393 4.6972 134.127 4.50048 134.857 4.54966C135.006 4.61523 134.592 4.59884 134.658 4.68081C136.88 4.86114 137.228 4.2054 139.301 4.32015L139.118 4.35294C139.466 4.28736 140.146 4.30376 140.146 4.25458C139.881 4.00868 139.781 4.38573 139.135 4.25458C139.185 4.04146 139.931 4.13982 139.881 3.99228C140.362 4.07425 140.66 3.9431 141.075 3.9431C141.804 4.07425 142.832 3.97589 143.379 4.13982C143.728 4.07425 144.126 3.87753 144.888 3.86114C145.435 4.02507 144.756 4.00868 145.502 4.07425L145.618 3.9595C146.231 3.97589 146.132 4.00868 146.115 4.07425C146.762 4.07425 146.662 3.91032 147.475 3.99228L147.027 4.10704C147.624 4.05786 147.873 4.07425 148.718 4.10704C148.702 4.17261 148.37 4.17261 148.122 4.15622C148.586 4.33654 148.901 4.07425 149.15 4.10704C149.083 4.05786 148.503 4.02507 148.785 3.91032C149.199 3.92671 149.68 3.74638 149.962 3.89392L149.514 4.00868C150.377 3.91032 149.979 3.86114 150.973 3.91032C150.924 3.91032 150.94 3.9431 150.924 3.97589C151.554 3.82835 152.383 3.97589 153.311 3.97589L153.129 4.00868C153.51 3.97589 153.709 3.86114 153.908 3.87753C153.378 3.81195 153.527 3.77917 153.477 3.66441C154.174 3.86114 154.555 3.43491 155.699 3.54966C155.682 3.61523 155.401 3.6972 155.086 3.63163C154.688 3.82835 154.638 4.00868 153.941 4.10704C154.373 4.05786 154.887 4.02507 154.787 4.10704L154.92 3.91032C155.185 3.91032 155.384 3.91032 155.583 3.91032C155.699 3.79556 155.052 3.71359 155.666 3.63163C156.362 3.56605 156.031 3.82835 156.147 3.74638C157.092 3.66441 156.545 3.54966 157.457 3.59884C157.357 3.59884 157.191 3.64802 157.108 3.63163C157.755 3.71359 158.717 3.59884 158.899 3.82835C158.8 3.87753 158.783 3.9431 158.534 3.92671V3.89392C157.821 4.05786 159.148 3.84474 158.916 4.05786C158.866 3.9431 159.778 3.9595 160.192 3.99228L160.06 3.84474C161.436 3.43491 159.993 4.12343 161.353 4.07425C162.215 3.97589 161.021 4.04146 161.552 3.9431C162.132 3.9595 162.348 4.09064 163.21 4.02507C163.442 4.07425 163.94 4.15622 163.973 4.30376C164.487 4.23818 165.548 4.36933 165.846 4.22179C164.951 4.09064 164.968 4.38573 163.923 4.189L164.222 4.04146C164.935 4.04146 165.863 3.97589 166.36 4.04146C166.261 4.00868 166.211 3.97589 166.278 3.9431C167.306 3.89392 167.604 3.72999 168.599 3.77917C168.732 3.92671 168.151 3.89392 167.72 3.91032C168.367 4.02507 168.4 3.91032 169.395 3.9595C169.445 4.07425 168.715 3.9595 168.615 4.07425L169.726 4.04146C169.726 4.04146 169.726 4.04146 169.726 4.07425C169.892 3.87753 170.572 4.09064 171.252 4.02507C172.86 4.02507 173.092 3.74638 173.988 3.58245C174.22 3.63163 174.303 3.6972 174.203 3.74638C173.805 3.64802 173.888 3.72999 173.739 3.77917C174.286 3.76277 174.916 3.97589 174.618 4.05786C175.48 3.99228 174.303 3.9431 174.833 3.89392H176.011C175.878 3.79556 175.463 3.77917 176.06 3.6972C176.574 3.66441 176.823 3.6972 177.486 3.6972C177.387 3.74638 177.702 3.86114 177.188 3.84474C177.519 3.87753 178.017 3.89392 178.216 3.79556C177.486 3.6972 179.426 3.71359 178.879 3.54966L179.609 3.64802C179.443 3.64802 179.426 3.71359 179.177 3.6972C179.393 3.86113 179.774 3.64802 180.04 3.63163C180.305 3.66441 180.968 3.68081 181.018 3.72999C181.25 3.68081 181.814 3.72999 181.93 3.79556C182.278 3.76277 181.963 3.6972 182.063 3.64802H183.24C183.306 3.74638 183.406 3.99228 183.24 4.02507C183.687 3.9431 183.406 3.76277 184.069 3.77917C183.687 3.9431 184.948 3.91032 184.4 4.10704C184.782 4.23818 185.876 4.22179 186.49 4.189C186.871 4.05786 185.843 4.10704 185.876 3.97589C187.567 3.92671 187.683 3.54966 188.927 3.61523L188.612 3.58245C189.391 3.50048 189.308 3.51687 189.756 3.40212C189.54 3.56605 190.635 3.86114 191.912 3.82835C192.028 3.74638 191.199 3.66441 191.398 3.53327L192.243 3.50048C192.243 3.50048 192.21 3.54966 192.094 3.56605C192.857 3.50048 193.503 3.79556 193.719 3.58245L194.498 3.82835L194.2 3.71359C194.299 3.63163 195.161 3.59884 195.327 3.56605C196.189 3.46769 196.521 3.54966 196.985 3.64802C196.836 3.58245 196.455 3.41851 197.135 3.38573C197.135 3.66441 198.577 3.48409 198.544 3.63163C198.826 3.63163 199.307 3.71359 199.34 3.59884L199.29 3.77917C199.356 3.53327 200.368 3.54966 201.13 3.50048C200.948 3.82835 201.976 3.46769 202.324 3.77917C202.474 3.54966 203.701 3.6972 203.833 3.50048C204.43 3.50048 204.364 3.6972 204.513 3.76277L204.795 3.68081C205.093 3.77917 206.204 3.79556 206.867 3.87753L207.481 3.68081L207.713 3.76277C207.813 3.71359 208.327 3.68081 208.012 3.61523H208.343C208.376 3.41851 208.807 3.56605 209.487 3.48409C209.636 3.51687 209.603 3.56605 209.454 3.59884C209.786 3.59884 209.636 3.71359 209.819 3.77917C209.587 3.72999 211.013 3.40212 210.117 3.30376C210.051 3.22179 210.582 3.15622 210.913 3.189L211.112 3.38573L211.51 3.189C212.024 3.15622 212.24 3.28736 212.654 3.30376C212.223 3.30376 211.709 3.68081 212.803 3.66441C212.223 3.6972 211.941 3.79556 211.643 3.84474C211.875 3.84474 211.991 3.87753 211.643 3.9595C212.505 3.89392 211.925 3.84474 212.77 3.81195C212.72 3.97589 212.953 4.04146 213.699 4.10704L213.152 3.97589C213.152 3.97589 213.218 3.9431 213.251 3.92671C213.036 3.91032 212.986 3.87753 212.936 3.81195C213.102 3.81195 213.914 3.59884 214.064 3.6972C213.218 3.43491 215.556 3.48409 215.009 3.32015C215.108 3.27097 215.705 3.25458 215.755 3.35294C215.042 3.48409 216.285 3.54966 216.169 3.66441C216.435 3.61523 215.606 3.53327 215.97 3.46769C216.385 3.46769 216.7 3.56605 216.932 3.61523L216.75 3.64802L217.396 3.72999C217.496 3.64802 216.766 3.58245 217.363 3.53327C217.529 3.56605 218.126 3.53327 218.109 3.59884C217.827 3.71359 218.026 3.87753 217.512 3.91032C217.943 3.91032 219.286 3.87753 218.739 3.71359H219.253C218.938 3.64802 218.043 3.51687 219.054 3.48409V3.51687L219.751 3.38573L220.066 3.46769C220.066 3.46769 220.165 3.38573 220.431 3.38573C220.497 3.43491 220.746 3.4513 220.729 3.53327C221.492 3.53327 221.425 3.43491 221.525 3.38573C221.956 3.38573 222.105 3.40212 221.906 3.51687C222.487 3.53327 223.515 3.51687 223.896 3.61523C224.675 3.53327 223.73 3.58245 224.194 3.46769C224.874 3.76277 226.764 3.58245 228.041 3.54966C227.693 3.28736 228.389 3.51687 228.621 3.28736C228.34 3.36933 229.832 3.48409 228.721 3.56605L229.401 3.53327C229.865 3.68081 228.273 3.64802 228.986 3.84474C229.749 3.84474 230.246 3.54966 231.142 3.64802C230.843 3.82835 231.838 3.58245 231.606 3.79556C231.424 3.86114 231.175 3.84474 230.91 3.86114L231.075 3.89392C232.75 3.9431 231.556 3.68081 232.435 3.54966C233.447 3.53327 233.231 3.6972 233.297 3.77917C233.463 3.81195 233.961 3.77917 234.242 3.72999C233.629 3.84474 233.098 3.61523 233.38 3.50048C233.828 3.71359 234.889 3.51687 235.171 3.43491C233.712 3.2054 234.159 3.43491 232.8 3.189C232.617 3.25458 232.651 3.4513 231.822 3.36933C232.336 3.27097 231.788 3.27097 231.639 3.23818C231.805 3.35294 231.075 3.28736 230.827 3.33654C230.595 3.25458 231.324 3.09064 230.495 3.04146L230.346 3.30376C230.014 3.27097 230.479 3.10704 229.799 3.17261C230.164 3.04146 229.683 2.9595 230.628 2.92671C229.517 2.71359 228.92 3.04146 228.041 3.13982C228.124 3.13982 228.141 3.09064 228.224 3.07425C228.041 3.13982 227.693 3.13982 227.444 3.15622C226.864 3.09064 227.892 3.04146 227.743 2.97589H226.814H226.798C226.549 3.00868 226.317 3.04146 226.234 2.97589C226.516 2.89392 226.615 2.81195 226.798 2.74638L225.819 2.92671C225.919 2.84474 225.023 2.77917 225.703 2.71359L224.261 2.74638L224.145 2.56605C223.796 2.59884 223.796 2.63163 224.194 2.64802C223.697 2.61523 222.006 2.9595 222.271 2.61523C221.144 2.76277 220.729 2.6972 219.369 2.79556C220.431 2.63163 218.159 2.59884 219.27 2.51687C218.623 2.43491 218.474 2.63163 217.96 2.66441C217.479 2.58245 217.695 2.41851 218.209 2.35294L217.595 2.43491V2.40212L217.081 2.50048C216.517 2.40212 216.965 2.32015 216.385 2.30376L216.252 2.4513L215.854 2.36933C216.003 2.43491 215.655 2.46769 215.241 2.48409V2.4513L214.727 2.48409C215.241 2.38573 214.262 2.4513 214.495 2.33655C214.047 2.33655 214.047 2.33655 213.251 2.35294L213.384 2.4513C212.339 2.54966 213.334 2.28736 212.505 2.28736L212.555 2.40212C211.344 2.2054 210.499 2.51687 209.603 2.38573C210.117 2.35294 209.985 2.22179 209.968 2.25458C209.205 2.30376 207.945 2.25458 207.149 2.41851C206.851 2.23818 206.785 2.189 205.972 2.10704C205.375 2.10704 205.292 2.13982 205.093 2.23818C204.513 2.17261 203.435 2.27097 203.402 2.13982C203.269 2.23818 202.888 2.12343 202.573 2.2054L202.507 2.15622L202.556 2.27097C201.528 1.99228 200.832 2.41851 199.804 2.189L199.986 2.15622L199.555 2.2054C199.555 2.2054 199.671 2.12343 199.688 2.05786H197.665L198.063 2.12343C197.632 2.12343 197.35 2.25458 196.869 2.17261C197.682 1.99228 196.206 2.17261 196.073 2.02507L196.504 1.97589C196.106 1.97589 195.924 2.01961 195.957 2.10704C195.195 2.15622 195.427 1.87753 194.73 2.00868H195.228C195.377 2.09064 195.012 2.189 194.681 2.189C194.598 2.17261 194.365 2.12343 194.614 2.10704C194.017 2.15622 193.105 2.09064 192.84 2.13982C192.508 2.10704 192.625 2.00868 192.79 1.97589C191.497 2.07425 192.21 1.9595 190.917 2.05786V1.99228L190.502 2.07425L189.872 1.92671L190.104 2.00868C189.673 2.00868 189.408 2.07425 188.927 2.02507L189.126 1.92671C187.932 1.97589 187.733 1.76277 186.606 1.89392C186.523 1.87753 186.705 1.84474 186.788 1.82835C185.727 1.99228 185.992 1.64802 184.931 1.82835C184.997 1.79556 184.881 1.74638 184.931 1.72999L184.45 1.79556L184.483 1.66441L184.085 1.86114L183.787 1.71359L183.605 1.77917C183.091 1.51687 182.361 1.71359 181.648 1.51687L181.764 1.6972C179.99 2.05786 177.685 1.50048 175.546 1.66441L175.579 1.53327L174.684 1.6972C174.203 1.58245 174.966 1.58245 174.817 1.50048C173.872 1.58245 174.419 1.6972 173.324 1.74638C172.761 1.64802 173.523 1.64802 173.789 1.59884C172.761 1.66441 171.219 1.74638 170.489 1.66441C170.489 1.68081 170.423 1.71359 170.473 1.71359C169.776 1.77917 168.864 1.71359 168.118 1.71359C168.135 1.64802 168.317 1.64802 168.516 1.63163C168.251 1.63163 167.869 1.58245 167.637 1.63163L167.919 1.51687C167.339 1.50048 166.211 1.59884 166.079 1.46769C166.145 1.51687 166.112 1.63163 165.614 1.61523C165.332 1.40212 164.238 1.6972 163.426 1.58245C163.525 1.53327 164.122 1.51687 163.956 1.51687C163.558 1.46769 163.194 1.56605 162.829 1.63163L162.945 1.54966L161.055 1.66441C160.773 1.4513 159.28 1.6972 159.413 1.54966C158.733 1.54966 159.977 1.64802 159.131 1.66441C158.899 1.58245 158.369 1.71359 158.402 1.56605H158.485H157.888L158.269 1.43491C157.755 1.46769 157.374 1.59884 157.357 1.6972C156.876 1.61523 156.18 1.6972 155.964 1.56605L156.147 1.53327C154.787 1.58245 153.892 1.15622 152.814 1.38573C152.731 1.36933 152.748 1.33655 152.913 1.33655H152.068L152.267 1.22179L150.874 1.38573V1.32015C149.979 1.28736 148.536 1.32015 147.342 1.35294L147.525 1.32015C146.231 1.41851 146.281 1.25458 145.336 1.32015C145.369 1.30376 145.402 1.28736 145.435 1.28736H144.59L144.772 1.22179C144.142 1.36933 142.965 1.02507 143.363 1.15622C142.998 1.22179 142.385 1.30376 142.285 1.38573C141.357 1.38573 142.053 1.30376 141.489 1.23818C140.826 1.23818 140.693 1.35294 139.798 1.28736V1.22179C139.383 1.22179 139.135 1.28736 138.538 1.28736L138.72 1.25458C137.759 1.40212 137.51 1.05786 136.764 1.35294C136.366 1.30376 135.586 1.35294 135.62 1.2054C134.409 1.28736 133.481 1.33655 132.287 1.38573C132.088 1.15622 132.022 1.38573 131.309 1.27097L131.358 1.38573C129.667 1.40212 127.727 1.10704 125.87 1.15622L125.82 1.04146L125.439 1.17261C123.433 1.10704 120.83 1.07425 119.238 1.05786C118.707 1.12343 117.911 1.27097 117.082 1.22179H117.165C115.723 1.27097 114.181 1.32015 112.605 1.25458C112.705 1.2054 112.539 1.17261 112.722 1.13982C112.34 1.27097 111.793 1.13982 111.461 1.13982L111.859 1.23818C111.412 1.35294 110.765 1.23818 110.533 1.15622L109.82 1.28736C109.82 1.28736 109.704 1.25458 109.687 1.23818L109.555 1.30376L109.173 1.13982C108.991 1.17261 108.062 1.2054 107.764 1.36933C107.698 1.32015 107.034 1.27097 107.548 1.23818L104.945 1.189L105.343 1.23818C105.393 1.35294 104.614 1.43491 104.216 1.38573C104.746 1.28736 104.265 1.2054 104.033 1.12343C103.685 1.189 104.348 1.23818 104.149 1.30376C103.702 1.38573 102.773 1.43491 102.524 1.36933L102.79 1.32015C102.193 1.36933 101.911 1.15622 101.314 1.15622C100.783 1.25458 100.385 1.15622 100.501 1.36933C99.7222 1.41851 100.203 1.22179 99.9543 1.2054C99.5895 1.30376 98.5118 1.23818 98.3791 1.13982C97.9646 1.4513 96.3065 1.02507 96.1407 1.28736L95.5106 1.13982C95.5106 1.13982 95.3614 1.36933 94.8474 1.38573C94.3666 1.30376 94.4826 1.189 94.3334 1.12343L94.0018 1.38573C91.2162 1.10704 87.5353 1.28736 84.4844 1.07425C83.1248 1.12343 81.4004 1.25458 79.8086 1.2054L79.991 1.17261L78.4158 1.10704L79.5599 1.22179C79.2117 1.25458 78.9464 1.30376 78.6148 1.30376C76.8738 1.189 74.5691 1.07425 72.4301 1.189C71.0539 1.48409 71.5182 0.926709 70.1917 1.13982C70.3078 1.10704 70.3409 1.07425 70.457 1.04146C69.0311 1.13982 68.2518 1.189 66.8258 1.36933C66.9916 1.07425 65.8973 1.36933 66.0299 1.22179L65.9139 1.33655C65.5988 1.27097 64.8527 1.23818 64.9522 1.15622L64.3221 1.30376L64.2724 1.189C63.4433 1.189 61.636 1.28736 61.2049 1.02507C59.1323 1.2054 55.8659 1.15622 53.2627 1.10704C52.8979 1.2054 52.1352 1.22179 51.5383 1.22179L50.9082 1.07425C50.3113 1.12343 49.6647 1.30376 49.1009 1.2054C49.1009 1.189 49.1341 1.17261 49.1672 1.17261C48.5537 1.2054 47.9734 1.12343 47.3931 1.25458C46.7299 1.25458 46.0666 1.17261 46.2822 1.04146C46.2158 1.28736 44.8562 1.00868 44.8562 1.00868C44.8231 0.861135 10.3515 0.270971 1.92847 1.58245C1.64659 1.6972 0.867293 1.77917 1.16575 1.92671C0.568838 1.97589 0.286964 1.76277 0.170898 1.87753C0.99994 1.9595 -0.0778139 2.189 0.718066 2.33655L0.20406 2.36933C0.104575 2.4513 0.900455 2.27097 0.784389 2.43491L0.933616 2.2054C1.34814 2.23818 1.58027 2.28736 1.7295 2.36933C2.12744 2.28736 2.37615 1.97589 3.30467 2.10704H3.03938C3.8021 2.10704 3.50364 2.27097 3.66945 2.30376H3.50364L4.1503 2.41851C3.66945 2.33654 2.85699 2.51687 3.28809 2.51687C4.20004 2.58245 3.05596 2.46769 3.73578 2.43491C4.16688 2.43491 4.03423 2.54966 4.01765 2.61523H4.78037C4.74721 2.71359 4.28294 2.61523 4.5814 2.71359L5.54309 2.59884C5.72547 2.86114 6.58768 2.46769 7.01878 2.71359C6.32238 2.77917 7.0851 2.79556 6.96904 2.89392H8.66028C8.82609 2.91032 8.2126 2.9595 8.47789 2.9431C8.79293 3.00868 8.9919 2.87753 9.17429 2.87753C9.32351 2.9431 10.4344 2.87753 10.3847 3.04146C11.5288 3.15622 10.8655 2.82835 11.9267 2.92671C12.0593 3.02507 11.0811 2.9595 11.5453 3.05786L12.6563 3.02507C12.5568 3.07425 12.4407 3.189 12.0262 3.17261C15.0273 3.30376 16.6357 3.86114 19.3715 3.72999C19.7529 3.86114 19.0896 3.81195 18.8243 3.89392C20.814 3.72999 21.6099 4.17261 23.3011 4.15622L23.3343 4.05786C25.6888 4.38573 28.5241 4.189 31.177 4.32015L30.862 4.25458C31.2268 4.15622 31.8237 4.13982 32.2548 4.09064C32.3211 4.13982 31.9398 4.30376 32.7025 4.27097C32.5367 4.23818 32.2216 4.189 32.3211 4.13982C34.6093 4.40212 39.4177 4.33654 43.1816 4.46769C48.2553 4.38573 53.7601 4.59884 58.751 4.53327C57.9882 4.53327 58.3198 4.28736 58.8836 4.35294C60.4422 4.77917 61.6028 4.28736 63.1946 4.58245C66.0963 4.4513 68.6829 4.81195 71.3855 4.48409L71.4353 4.59884C71.8332 4.64802 71.9493 4.56605 72.3638 4.54966V4.58245C73.3587 4.63163 74.5691 4.50048 75.1328 4.56605L75.166 4.43491C75.7629 4.43491 75.481 4.54966 76.0779 4.46769V4.53327L76.7743 4.40212C76.708 4.64802 78.449 4.41851 78.9298 4.53327C79.6925 4.48409 81.1516 4.38573 82.3289 4.43491C82.5444 4.56605 83.9704 4.54966 84.8823 4.61523C86.6565 4.58245 89.1933 4.54966 91.4649 4.58245L91.4318 4.41851H92.0287C92.0287 4.41851 92.095 4.46769 92.0121 4.48409C92.4763 4.66441 93.3717 4.43491 93.8526 4.53327C93.5541 4.38573 93.438 4.51687 93.1064 4.50048C92.6256 4.41851 93.0898 4.27097 93.7365 4.35294V4.38573L94.1676 4.30376C94.2173 4.41851 94.6153 4.48409 94.6816 4.59884C96.6215 4.56605 97.948 4.35294 99.9543 4.41851C99.7553 4.54966 101.397 4.38573 100.999 4.61523C102.209 4.53327 100.8 4.41851 101.347 4.25458C101.679 4.25458 102.043 4.189 102.093 4.28736C101.927 4.33655 102.359 4.43491 102.093 4.4513H102.906C102.906 4.4513 102.806 4.48409 102.723 4.50048C104.365 4.36933 105.625 4.64802 107.101 4.51687C107.217 4.43491 106.52 4.50048 106.62 4.40212C108.095 4.22179 107.93 4.54966 109.306 4.43491L109.024 4.54966C109.472 4.46769 109.671 4.36933 110.4 4.46769C110.533 4.61523 109.77 4.58245 109.422 4.64802C109.919 4.64802 111.196 4.61523 110.815 4.48409C111.412 4.43491 111.644 4.56605 111.959 4.59884C111.959 4.56605 111.395 4.50048 111.743 4.43491C112.556 4.51687 113.832 4.51687 114.827 4.51687C114.827 4.54966 114.894 4.59884 114.794 4.61523C115.607 4.43491 115.524 4.74638 116.618 4.71359V4.72999Z" fill="#8C594D"/>
</svg>
